<?xml version="1.0" standalone="no"?>
<!DOCTYPE svg PUBLIC "-//W3C//DTD SVG 20010904//EN"
 "http://www.w3.org/TR/2001/REC-SVG-20010904/DTD/svg10.dtd">
<svg version="1.0" xmlns="http://www.w3.org/2000/svg"
 width="500.000000pt" height="500.000000pt" viewBox="0 0 500.000000 500.000000"
 preserveAspectRatio="xMidYMid meet">
<metadata>
Created by potrace 1.11, written by Peter Selinger 2001-2013
</metadata>
<g transform="translate(0.000000,500.000000) scale(0.100000,-0.100000)"
fill="#000000" stroke="none">
<path d="M0 2500 l0 -2500 2500 0 2500 0 0 2500 0 2500 -2500 0 -2500 0 0
-2500z m4990 0 l0 -2490 -2490 0 -2490 0 0 2490 0 2490 2490 0 2490 0 0 -2490z"/>
<path d="M2345 4809 c-412 -21 -802 -152 -1160 -392 -491 -329 -849 -862 -970
-1444 -46 -222 -59 -538 -30 -760 102 -772 565 -1430 1251 -1776 337 -171 663
-248 1044 -248 723 0 1366 313 1822 886 255 321 432 757 477 1177 14 125 14
371 0 496 -69 637 -408 1231 -921 1610 -444 328 -948 478 -1513 451z m351 -60
c537 -52 1052 -304 1421 -693 323 -342 525 -759 600 -1241 24 -151 24 -479 0
-630 -61 -397 -205 -741 -440 -1054 -93 -124 -306 -337 -429 -429 -825 -616
-1909 -616 -2738 2 -121 90 -334 303 -427 427 -234 313 -380 660 -439 1049
-25 158 -25 481 -1 640 73 475 276 894 598 1234 477 504 1167 762 1855 695z"/>
<path d="M2360 4635 c0 -9 9 -15 25 -15 16 0 25 6 25 15 0 9 -9 15 -25 15 -16
0 -25 -6 -25 -15z"/>
<path d="M2470 4635 c0 -9 9 -15 25 -15 16 0 25 6 25 15 0 9 -9 15 -25 15 -16
0 -25 -6 -25 -15z"/>
<path d="M2567 4644 c-4 -4 -7 -11 -7 -16 0 -13 50 -6 53 7 2 12 -36 19 -46 9z"/>
<path d="M2262 4628 c7 -20 48 -23 48 -4 0 11 -9 16 -26 16 -16 0 -24 -5 -22
-12z"/>
<path d="M2660 4625 c0 -9 9 -15 25 -15 16 0 25 6 25 15 0 9 -9 15 -25 15 -16
0 -25 -6 -25 -15z"/>
<path d="M2170 4614 c0 -10 7 -14 22 -12 32 5 35 28 4 28 -17 0 -26 -5 -26
-16z"/>
<path d="M2752 4618 c5 -15 48 -18 48 -3 0 6 -11 11 -26 13 -18 3 -25 0 -22
-10z"/>
<path d="M2074 4609 c-3 -6 -2 -14 2 -19 12 -11 57 7 49 20 -8 13 -42 13 -51
-1z"/>
<path d="M2850 4606 c0 -18 31 -29 44 -16 8 8 7 14 -4 20 -22 14 -40 12 -40
-4z"/>
<path d="M1985 4590 c-3 -5 -4 -14 -1 -19 9 -13 46 -1 46 15 0 16 -36 19 -45
4z"/>
<path d="M2944 4589 c-7 -12 12 -29 34 -29 18 0 15 27 -4 34 -21 8 -22 8 -30
-5z"/>
<path d="M1896 4567 c-13 -10 -16 -16 -7 -21 15 -10 53 3 48 17 -5 17 -21 18
-41 4z"/>
<path d="M2340 4526 c0 -25 5 -46 10 -46 6 0 10 18 10 39 0 22 -4 43 -10 46
-6 4 -10 -12 -10 -39z"/>
<path d="M2480 4524 c0 -27 4 -43 10 -39 6 3 10 24 10 46 0 21 -4 39 -10 39
-5 0 -10 -21 -10 -46z"/>
<path d="M2627 4563 c-11 -10 -8 -83 3 -83 6 0 10 20 10 45 0 46 -2 50 -13 38z"/>
<path d="M3032 4558 c5 -15 48 -18 48 -3 0 6 -11 11 -26 13 -18 3 -25 0 -22
-10z"/>
<path d="M1800 4540 c-11 -7 -12 -12 -3 -21 13 -13 57 6 48 22 -8 12 -26 11
-45 -1z"/>
<path d="M2196 4513 c7 -42 11 -49 20 -40 10 9 -5 77 -17 77 -6 0 -7 -15 -3
-37z"/>
<path d="M2766 4534 c-9 -24 -7 -79 3 -68 12 13 22 84 11 84 -4 0 -11 -7 -14
-16z"/>
<path d="M3127 4543 c-11 -10 13 -33 34 -33 25 0 24 16 0 30 -23 12 -26 12
-34 3z"/>
<path d="M2056 4493 c7 -40 24 -69 24 -41 0 32 -13 78 -22 78 -5 0 -6 -17 -2
-37z"/>
<path d="M2910 4525 c0 -6 -4 -27 -9 -47 -11 -49 5 -49 18 -1 7 24 7 41 1 47
-6 6 -10 6 -10 1z"/>
<path d="M1711 4506 c-8 -10 -9 -16 -2 -21 14 -8 53 13 46 26 -9 13 -31 11
-44 -5z"/>
<path d="M3222 4498 c3 -7 15 -15 27 -16 16 -3 22 1 19 10 -3 7 -15 15 -27 16
-16 3 -22 -1 -19 -10z"/>
<path d="M1914 4474 c3 -9 9 -27 12 -40 3 -13 10 -24 16 -24 5 0 7 9 4 20 -3
11 -9 29 -12 40 -3 11 -10 20 -16 20 -5 0 -7 -7 -4 -16z"/>
<path d="M3040 4449 c-12 -45 -6 -66 8 -28 20 53 23 69 13 69 -6 0 -15 -18
-21 -41z"/>
<path d="M1616 4464 c-5 -12 0 -15 21 -12 14 2 28 9 31 16 6 18 -45 15 -52 -4z"/>
<path d="M3306 4471 c-9 -14 22 -34 41 -26 17 6 17 7 -1 21 -23 16 -33 18 -40
5z"/>
<path d="M1544 4436 c-13 -10 -16 -18 -8 -25 7 -8 16 -7 30 3 13 10 16 18 8
25 -7 8 -16 7 -30 -3z"/>
<path d="M1770 4447 c0 -15 32 -77 40 -77 12 0 -14 73 -28 78 -7 2 -12 2 -12
-1z"/>
<path d="M3176 4416 c-3 -13 -9 -31 -12 -40 -3 -9 -2 -16 4 -16 9 0 32 51 32
71 0 19 -18 7 -24 -15z"/>
<path d="M3390 4426 c0 -13 20 -26 41 -26 15 0 10 27 -7 34 -24 9 -34 7 -34
-8z"/>
<path d="M1450 4390 c-11 -6 -12 -12 -4 -20 13 -13 44 -2 44 16 0 16 -18 18
-40 4z"/>
<path d="M1640 4390 c0 -18 33 -79 41 -74 9 5 -21 84 -33 84 -4 0 -8 -4 -8
-10z"/>
<path d="M3480 4385 c0 -8 9 -19 19 -25 27 -14 40 9 16 27 -24 17 -35 17 -35
-2z"/>
<path d="M3307 4355 c-19 -41 -20 -45 -9 -45 7 0 42 63 42 75 0 17 -19 -1 -33
-30z"/>
<path d="M1374 4346 c-13 -10 -16 -18 -8 -25 7 -8 16 -7 30 3 13 10 16 18 8
25 -7 8 -16 7 -30 -3z"/>
<path d="M2290 4349 c-486 -49 -954 -305 -1259 -687 -601 -757 -530 -1835 165
-2502 201 -193 432 -334 690 -419 394 -131 800 -131 1188 0 621 210 1086 734
1222 1374 98 463 15 946 -232 1353 -368 606 -1066 952 -1774 881z m495 -39
c387 -66 709 -234 990 -515 153 -153 238 -269 334 -455 273 -532 273 -1148 0
-1680 -96 -186 -181 -302 -334 -455 -281 -281 -596 -445 -995 -517 -162 -29
-438 -29 -600 0 -378 68 -694 226 -962 481 -520 494 -704 1233 -477 1915 87
262 220 483 414 685 320 334 722 522 1205 565 87 7 316 -5 425 -24z"/>
<path d="M2873 4083 c-7 -2 -13 -12 -13 -22 0 -12 -8 -17 -27 -16 -26 0 -28
-3 -26 -35 1 -26 11 -43 37 -67 30 -28 33 -33 15 -33 -11 0 -38 18 -61 40 -56
54 -118 66 -118 23 0 -9 8 -25 18 -36 17 -19 16 -20 -10 -13 -31 7 -78 -8 -78
-26 0 -6 9 -21 20 -33 l19 -20 -39 3 c-39 4 -40 3 -40 -27 0 -19 6 -34 15 -37
21 -8 19 -24 -3 -24 -52 0 -80 -60 -43 -94 43 -39 120 -16 191 60 72 75 129
114 168 113 21 0 30 -3 22 -6 -68 -26 -127 -110 -209 -303 -34 -80 -71 -161
-82 -181 -32 -62 -23 -79 44 -79 44 0 115 -37 131 -69 7 -14 16 -40 19 -57 3
-17 19 -45 36 -63 42 -45 54 -94 36 -139 -8 -19 -15 -47 -15 -61 0 -45 -55
-119 -103 -141 -23 -11 -49 -20 -59 -20 -9 0 -35 -16 -58 -35 -77 -65 -166
-66 -227 -4 -17 17 -39 29 -54 29 -36 0 -65 25 -97 85 -16 29 -39 55 -55 63
-35 17 -43 36 -29 68 13 28 32 32 32 6 0 -20 44 -65 73 -75 11 -4 17 -17 17
-39 1 -53 48 -98 104 -98 16 0 32 -9 41 -24 20 -30 77 -42 134 -26 43 11 56
30 21 30 -11 0 -37 16 -59 35 -21 19 -48 35 -60 35 -28 0 -81 52 -81 79 0 13
-14 30 -40 46 -67 42 -74 79 -25 125 l25 23 0 -32 c0 -42 22 -83 54 -101 18
-9 26 -22 26 -40 0 -35 25 -56 78 -65 25 -4 46 -14 52 -25 14 -25 64 -43 102
-36 41 8 125 69 140 101 15 34 9 37 -37 20 -22 -8 -70 -14 -107 -15 l-68 0
-25 40 c-14 23 -38 46 -53 52 -63 27 -77 58 -43 99 l19 24 11 -42 c9 -33 17
-43 39 -48 18 -3 34 -18 46 -39 19 -36 39 -46 94 -46 26 0 35 5 39 21 5 16 11
19 34 14 64 -14 119 50 88 103 -24 43 -41 47 -83 18 -41 -28 -84 -34 -104 -14
-18 18 -15 28 8 28 35 0 77 28 84 55 9 35 -20 92 -56 111 -25 13 -40 13 -103
3 -40 -6 -79 -9 -86 -7 -8 3 -13 29 -15 79 -4 92 -35 218 -71 278 -79 136
-307 291 -410 279 -25 -3 -20 -7 47 -45 98 -54 204 -144 251 -214 40 -58 69
-147 69 -209 0 -53 -10 -55 -33 -7 -12 23 -57 78 -101 123 -66 65 -99 89 -176
127 -59 29 -125 53 -175 63 -136 27 -272 95 -402 201 -63 51 -70 38 -23 -43
45 -80 155 -157 299 -211 211 -79 424 -221 472 -315 19 -37 26 -88 12 -88 -5
0 -19 16 -32 36 -36 52 -160 164 -226 204 -118 70 -306 91 -454 50 -85 -24
-139 -49 -106 -49 11 -1 45 6 75 14 71 19 200 19 273 0 149 -39 293 -152 392
-310 l18 -29 -42 34 c-107 90 -141 113 -211 148 -74 36 -77 37 -195 37 -116 0
-122 -1 -187 -33 -37 -18 -91 -55 -119 -82 -55 -52 -62 -77 -10 -41 50 36 165
80 239 91 130 21 238 -14 320 -104 45 -48 97 -124 91 -131 -3 -2 -34 11 -71
30 -157 79 -322 67 -434 -30 -27 -24 -46 -46 -42 -50 4 -4 40 5 80 20 86 32
210 43 276 26 24 -7 59 -27 79 -44 l35 -32 -109 0 c-94 0 -114 -3 -151 -23
-59 -32 -122 -90 -122 -114 0 -19 1 -20 23 -4 44 33 144 76 190 82 52 7 123
-13 151 -45 16 -18 14 -19 -63 -23 -65 -4 -87 -10 -121 -32 -94 -62 -160 -142
-160 -195 0 -14 17 -2 68 48 82 83 155 115 242 108 30 -2 69 -10 85 -17 28
-11 28 -13 10 -20 -11 -4 -38 -13 -61 -19 -60 -16 -122 -65 -145 -114 -29 -64
-23 -73 19 -30 49 51 101 74 182 83 36 4 66 6 68 5 2 -2 -17 -12 -42 -24 -44
-22 -113 -87 -135 -130 -17 -31 -5 -26 57 21 51 39 60 43 126 46 l71 4 -42
-44 c-40 -41 -82 -118 -65 -118 5 0 19 12 33 26 38 42 110 84 142 84 l30 0
-34 -23 c-36 -24 -79 -81 -79 -105 0 -13 2 -13 18 1 32 29 131 68 187 74 30 3
55 3 55 -2 0 -4 -9 -18 -20 -32 -31 -40 -2 -103 47 -103 34 0 63 -18 63 -38 0
-14 -12 -17 -80 -19 -81 -1 -173 -24 -199 -49 -23 -21 -9 -25 62 -15 71 10
122 3 158 -23 28 -19 86 -20 154 -2 51 13 109 10 224 -13 30 -6 56 -9 59 -6 9
9 -23 38 -61 55 -36 16 -37 18 -15 23 13 3 60 9 106 13 54 4 82 11 79 18 -6
19 -68 35 -137 36 -46 0 -61 3 -50 10 8 5 31 10 50 10 49 0 110 11 110 20 0
15 -54 30 -108 30 -50 -1 -112 -12 -189 -35 -32 -10 -51 32 -34 73 20 47 141
111 280 147 33 8 67 18 74 21 11 4 16 -8 19 -50 7 -81 48 -118 48 -43 0 39 27
75 71 96 18 9 43 32 56 51 43 67 47 70 108 81 33 6 71 13 83 15 37 7 10 31
-45 39 -58 9 -48 16 80 55 53 17 97 35 97 39 0 25 -90 28 -174 6 -33 -9 -61
-13 -65 -10 -3 3 23 31 57 61 34 31 62 60 62 66 0 17 -61 0 -112 -31 l-46 -29
0 86 c1 96 -13 145 -63 227 -17 28 -44 61 -60 73 -29 23 -31 23 -69 8 -55 -22
-91 -20 -131 7 -53 36 -58 97 -11 155 l27 33 0 -52 c0 -43 4 -54 28 -75 32
-27 64 -31 93 -9 10 8 35 15 55 15 42 0 89 37 89 71 0 33 -39 95 -82 129 -21
17 -38 39 -38 48 0 14 109 110 163 144 29 18 -7 17 -74 -2 -86 -23 -119 -25
-119 -6 0 7 20 57 46 110 25 54 44 102 42 107 -2 5 -34 -18 -73 -51 -59 -52
-70 -58 -76 -43 -9 23 0 64 18 82 8 7 13 23 11 35 -4 30 -51 34 -70 7 -15 -21
-15 -21 -38 4 -23 25 -33 28 -57 18z m147 -328 l-24 -26 29 -24 c35 -28 31
-31 -14 -9 -31 15 -34 15 -55 -5 -32 -30 -41 -26 -16 6 l21 28 -21 17 c-23 19
-11 24 19 9 12 -7 26 -4 47 10 39 25 42 24 14 -6z"/>
<path d="M1270 2140 l-25 -6 -3 -180 c-2 -171 -1 -181 19 -202 14 -16 27 -21
42 -16 35 10 38 18 22 57 -11 27 -15 75 -15 184 0 81 -4 153 -8 159 -4 6 -18
8 -32 4z"/>
<path d="M2070 2140 l-25 -6 -3 -180 c-2 -171 -1 -181 19 -202 14 -16 27 -21
42 -16 35 10 38 18 22 57 -11 27 -15 75 -15 184 0 81 -4 153 -8 159 -4 6 -18
8 -32 4z"/>
<path d="M2207 2138 l-28 -10 3 -180 c3 -172 4 -181 25 -198 37 -29 96 1 64
33 -7 7 -11 66 -11 173 0 154 -4 195 -19 193 -3 0 -19 -5 -34 -11z"/>
<path d="M3680 2140 c-22 -5 -25 -12 -28 -56 l-3 -51 -44 1 c-78 2 -129 -57
-129 -149 0 -56 23 -107 58 -130 23 -16 35 -17 134 -15 l52 0 0 193 c0 105 -4
197 -8 203 -4 6 -18 8 -32 4z m-30 -249 c0 -72 -6 -81 -51 -81 -28 0 -53 44
-45 82 9 43 33 68 68 68 l28 0 0 -69z"/>
<path d="M2652 2128 c-26 -26 -3 -88 32 -88 37 0 47 49 16 80 -23 23 -31 25
-48 8z"/>
<path d="M2860 2108 c-25 -41 -21 -52 16 -56 24 -2 33 4 52 33 27 42 22 55
-19 55 -22 0 -34 -8 -49 -32z"/>
<path d="M950 1951 c0 -99 3 -186 6 -195 5 -13 25 -16 120 -16 114 0 114 0
114 24 0 51 -7 56 -86 56 l-74 0 0 45 0 45 60 0 c59 0 60 0 60 28 0 40 -17 52
-72 52 -47 0 -48 1 -48 30 l0 30 81 0 80 0 -3 38 -3 37 -117 3 -118 3 0 -180z"/>
<path d="M1593 2029 c-67 -19 -106 -105 -84 -187 25 -91 120 -132 208 -90 21
10 21 12 5 45 -11 24 -20 32 -31 27 -27 -12 -75 -15 -89 -6 -8 5 -16 27 -19
48 -9 69 49 115 107 84 15 -8 21 -6 30 10 16 30 4 57 -32 69 -36 13 -51 13
-95 0z"/>
<path d="M1815 2033 c-33 -8 -39 -20 -26 -51 12 -27 15 -29 55 -25 26 3 46 1
50 -6 5 -7 -4 -11 -27 -11 -43 0 -98 -36 -110 -73 -11 -35 -3 -69 26 -103 18
-21 32 -27 65 -27 23 0 49 6 58 13 10 9 18 10 22 4 13 -19 40 -23 59 -9 14 11
16 16 6 26 -8 8 -13 41 -13 86 0 78 -15 127 -46 155 -21 18 -86 30 -119 21z
m85 -181 c0 -25 -19 -42 -47 -42 -28 0 -32 34 -5 49 27 16 52 13 52 -7z"/>
<path d="M2381 2023 c-47 -24 -72 -62 -78 -115 -6 -55 23 -128 61 -153 47 -31
166 -17 166 18 0 7 -7 22 -15 34 -13 19 -19 20 -45 10 -36 -14 -83 0 -88 26
-3 15 7 17 87 17 l91 0 0 45 c0 39 -5 51 -37 85 -47 48 -92 59 -142 33z m99
-78 c11 -13 5 -15 -40 -15 -45 0 -51 2 -40 15 7 8 25 15 40 15 15 0 33 -7 40
-15z"/>
<path d="M2830 2023 c-67 -34 -90 -135 -50 -213 26 -52 61 -73 115 -72 55 0
89 23 109 73 21 52 20 95 -3 146 -33 71 -106 100 -171 66z m98 -75 c17 -17 15
-89 -4 -116 -17 -24 -53 -29 -72 -10 -18 18 -15 98 5 120 18 21 53 24 71 6z"/>
<path d="M3145 2031 c-11 -5 -37 -7 -57 -4 l-38 6 0 -131 c0 -72 3 -137 6
-146 4 -10 18 -16 40 -16 l34 0 0 105 c0 103 0 105 25 111 49 12 55 2 55 -95
0 -112 3 -121 46 -121 l34 0 0 100 c0 104 -9 138 -47 172 -24 22 -71 30 -98
19z"/>
<path d="M3831 2023 c-75 -39 -101 -126 -62 -206 12 -25 33 -53 48 -62 30 -20
100 -23 142 -6 l30 13 -17 34 c-11 25 -20 33 -31 28 -36 -16 -78 -16 -94 1
-10 9 -17 21 -17 26 0 5 41 9 90 9 79 0 90 2 91 18 7 115 -89 192 -180 145z
m99 -78 c11 -13 5 -15 -40 -15 -45 0 -51 2 -40 15 7 8 25 15 40 15 15 0 33 -7
40 -15z"/>
<path d="M2600 2000 c0 -24 5 -33 20 -37 19 -5 20 -12 18 -122 l-3 -116 -35 0
c-31 0 -35 -3 -38 -29 -9 -78 20 -94 94 -51 58 34 66 65 62 240 l-3 140 -57 3
-58 3 0 -31z"/>
<path d="M1510 1701 l-25 -7 -3 -173 c-3 -197 4 -221 59 -221 32 0 49 24 30
43 -7 7 -11 66 -11 173 0 89 -3 169 -6 178 -7 17 -7 17 -44 7z"/>
<path d="M2790 1701 l-25 -7 -3 -167 c-3 -194 6 -227 59 -227 32 0 49 24 30
43 -7 7 -11 66 -11 173 0 89 -3 169 -6 178 -7 17 -7 17 -44 7z"/>
<path d="M2933 1703 c-23 -4 -23 -5 -23 -186 1 -197 6 -217 52 -217 37 0 49
20 33 50 -10 18 -14 67 -15 177 0 144 -4 185 -19 182 -3 -1 -16 -4 -28 -6z"/>
<path d="M2397 1603 c-4 -4 -30 -7 -58 -7 -44 -1 -54 -5 -80 -34 -33 -37 -37
-77 -13 -124 11 -22 13 -33 5 -41 -15 -15 -14 -49 4 -74 13 -19 13 -23 -6 -47
-23 -29 -18 -62 9 -70 19 -5 71 -9 120 -7 44 1 92 48 92 89 0 34 -34 82 -57
82 -14 0 -13 4 5 23 29 31 44 75 37 109 -4 17 -2 35 5 43 25 30 -37 85 -63 58z
m-19 -106 c5 -25 -16 -47 -44 -47 -20 0 -24 5 -24 28 0 16 3 32 7 36 14 13 58
1 61 -17z m12 -206 c0 -18 -53 -23 -69 -7 -14 15 -11 16 27 16 23 0 42 -4 42
-9z"/>
<path d="M1662 1580 c-79 -48 -82 -184 -6 -255 20 -19 38 -25 71 -25 64 0 98
21 118 75 54 139 -68 275 -183 205z m112 -76 c11 -29 6 -89 -10 -112 -17 -24
-53 -29 -72 -10 -18 18 -15 98 5 120 20 22 69 24 77 2z"/>
<path d="M1920 1588 c-14 -8 -31 -26 -38 -41 -19 -39 8 -90 64 -123 24 -14 44
-30 44 -35 0 -17 -32 -23 -62 -11 -24 9 -30 8 -39 -9 -24 -45 7 -69 89 -69
114 0 123 128 14 182 -38 18 -42 23 -30 35 11 11 21 11 43 3 30 -12 45 -2 45
31 0 38 -83 61 -130 37z"/>
<path d="M2524 1590 c-16 -6 -20 -15 -17 -34 7 -34 18 -40 69 -37 23 1 45 -2
49 -8 4 -7 -7 -11 -30 -11 -43 0 -90 -23 -105 -49 -18 -35 -12 -87 16 -120 21
-26 33 -31 67 -31 23 0 49 4 57 10 9 5 19 5 27 -1 21 -18 58 -7 55 16 -1 11
-5 58 -9 105 -3 47 -12 98 -20 113 -23 46 -103 70 -159 47z m106 -173 c0 -25
-26 -49 -50 -45 -30 4 -36 21 -15 42 20 19 65 21 65 3z"/>
<path d="M3104 1590 c-93 -37 -104 -201 -18 -269 33 -26 109 -28 142 -5 53 37
70 146 34 214 -30 56 -101 83 -158 60z m92 -82 c16 -25 8 -99 -13 -120 -30
-30 -68 -18 -77 23 -6 33 1 76 17 97 12 15 63 16 73 0z"/>
<path d="M3345 1589 c-72 -42 -55 -123 36 -169 26 -14 37 -25 33 -35 -7 -17
-46 -20 -73 -5 -15 7 -21 4 -30 -18 -11 -23 -10 -29 9 -44 32 -26 110 -24 144
3 20 15 26 29 26 58 0 46 -21 76 -71 101 -21 11 -39 24 -39 29 0 15 29 21 55
11 22 -8 27 -6 37 16 9 20 9 28 -4 40 -20 20 -97 28 -123 13z"/>
<path d="M2100 1241 c-8 -6 -28 -7 -45 -4 -29 6 -30 6 -12 -14 15 -17 15 -22
4 -31 -19 -16 -20 -87 -2 -106 11 -11 15 -38 15 -104 0 -113 3 -122 46 -122
l35 0 -3 143 -3 142 -39 5 c-35 4 -38 6 -22 19 13 11 22 12 43 2 32 -15 41 -7
20 17 -12 13 -14 21 -6 29 6 6 8 16 5 22 -9 13 -16 14 -36 2z"/>
<path d="M2620 1163 c0 -5 -24 -8 -54 -8 -44 0 -59 -5 -80 -24 -34 -32 -42
-80 -21 -124 13 -29 14 -40 4 -58 -9 -19 -9 -28 6 -55 17 -31 16 -33 -4 -61
-40 -53 -14 -73 96 -73 52 0 66 4 92 26 24 20 31 34 31 63 0 36 -23 74 -52 83
-9 3 -4 15 16 38 25 30 28 40 23 82 -4 28 -2 48 3 48 17 0 11 36 -8 53 -19 17
-52 23 -52 10z m-36 -79 c17 -7 21 -41 7 -62 -4 -8 -19 -12 -32 -10 -29 4 -37
39 -14 62 19 18 18 18 39 10z m36 -230 c0 -3 -12 -9 -26 -14 -18 -7 -32 -6
-47 2 -21 12 -21 13 13 18 33 6 60 3 60 -6z"/>
<path d="M1849 1137 c-87 -58 -91 -181 -10 -250 26 -22 43 -27 85 -27 29 0 61
6 71 14 17 12 17 17 5 45 -8 21 -18 30 -27 26 -70 -26 -113 -6 -113 53 0 21 7
48 16 61 15 20 23 23 66 19 40 -4 51 -2 58 13 32 59 -81 93 -151 46z"/>
<path d="M2243 1141 c-43 -27 -63 -69 -63 -134 0 -60 27 -112 70 -135 29 -15
135 -11 151 5 17 17 -18 77 -39 68 -50 -22 -102 -11 -102 20 0 12 18 15 90 15
l90 0 0 35 c0 106 -114 178 -197 126z m115 -78 c2 -9 -10 -13 -42 -13 -43 0
-55 7 -39 24 12 11 76 2 81 -11z"/>
<path d="M2762 1140 c-61 -38 -79 -128 -41 -207 32 -66 106 -92 174 -61 55 25
82 130 51 201 -33 77 -118 109 -184 67z m110 -74 c13 -19 8 -91 -8 -114 -19
-27 -60 -29 -74 -3 -5 11 -10 36 -10 56 0 62 63 104 92 61z"/>
<path d="M3006 1139 c-20 -16 -26 -29 -26 -58 0 -39 22 -67 83 -104 15 -10 27
-22 27 -28 0 -17 -32 -23 -62 -11 -26 10 -30 8 -41 -15 -10 -22 -8 -28 12 -44
36 -29 115 -26 146 6 46 45 23 120 -45 155 -22 11 -40 25 -40 31 0 16 25 21
53 10 24 -9 27 -8 33 16 15 56 -84 86 -140 42z"/>
<path d="M3560 4336 c0 -15 37 -32 47 -22 9 8 -17 36 -33 36 -8 0 -14 -6 -14
-14z"/>
<path d="M1510 4324 c0 -15 44 -77 48 -66 4 14 -26 72 -38 72 -6 0 -10 -3 -10
-6z"/>
<path d="M3444 4308 c-4 -7 -14 -23 -21 -35 -8 -11 -10 -24 -5 -27 5 -3 19 13
31 34 12 22 18 40 12 40 -5 0 -13 -6 -17 -12z"/>
<path d="M1298 4299 c-18 -10 -25 -39 -10 -39 5 0 17 6 28 14 24 18 8 40 -18
25z"/>
<path d="M3644 4288 c-9 -15 27 -41 40 -28 6 6 5 15 -4 25 -15 18 -26 19 -36
3z"/>
<path d="M1390 4250 c0 -15 41 -73 47 -67 6 6 -24 64 -37 72 -5 3 -10 1 -10
-5z"/>
<path d="M1210 4235 c-7 -9 -10 -18 -7 -21 10 -10 47 7 47 22 0 19 -24 18 -40
-1z"/>
<path d="M3553 4215 c-13 -19 -19 -37 -14 -40 8 -5 51 53 51 69 0 16 -17 3
-37 -29z"/>
<path d="M3720 4232 c0 -12 23 -32 37 -32 18 0 16 27 -3 34 -21 8 -34 8 -34
-2z"/>
<path d="M1131 4176 c-7 -9 -8 -17 -2 -20 14 -9 41 4 41 20 0 18 -24 18 -39 0z"/>
<path d="M3804 4175 c-6 -16 9 -34 29 -35 13 0 8 27 -8 40 -12 10 -16 9 -21
-5z"/>
<path d="M1270 4172 c0 -14 47 -72 53 -66 7 7 -34 74 -45 74 -5 0 -8 -4 -8 -8z"/>
<path d="M3670 4134 c-12 -19 -20 -37 -17 -40 5 -5 57 58 57 69 0 18 -21 3
-40 -29z"/>
<path d="M1060 4115 c-7 -9 -10 -19 -6 -22 8 -9 38 9 44 25 5 17 -23 15 -38
-3z"/>
<path d="M3872 4108 c6 -16 36 -34 44 -25 9 9 -15 37 -33 37 -8 0 -13 -5 -11
-12z"/>
<path d="M1159 4072 c12 -23 50 -56 56 -50 3 3 -6 20 -20 37 -29 34 -52 43
-36 13z"/>
<path d="M3781 4049 c-13 -17 -20 -33 -17 -37 7 -6 55 46 56 61 0 15 -16 5
-39 -24z"/>
<path d="M990 4055 c-10 -12 -10 -19 -2 -27 15 -15 48 14 38 31 -10 15 -21 14
-36 -4z"/>
<path d="M3940 4046 c0 -22 29 -41 42 -28 8 8 8 15 -2 27 -16 19 -40 20 -40 1z"/>
<path d="M920 3985 c-10 -12 -10 -19 -2 -27 13 -13 42 6 42 28 0 19 -24 18
-40 -1z"/>
<path d="M1050 3989 c0 -19 47 -65 57 -55 4 3 -7 21 -25 39 -22 22 -32 27 -32
16z"/>
<path d="M4010 3976 c0 -7 7 -19 15 -26 12 -10 16 -9 21 3 3 9 3 21 -1 27 -9
15 -35 12 -35 -4z"/>
<path d="M3887 3952 c-38 -40 -33 -48 8 -15 34 27 44 43 27 43 -5 0 -20 -13
-35 -28z"/>
<path d="M862 3918 c-14 -14 -16 -38 -4 -38 14 0 43 36 35 43 -9 10 -17 9 -31
-5z"/>
<path d="M4070 3912 c0 -5 6 -17 14 -28 12 -15 17 -16 27 -7 10 10 9 15 -1 28
-13 16 -40 21 -40 7z"/>
<path d="M950 3882 c0 -13 45 -52 60 -52 8 0 2 12 -15 30 -28 30 -45 38 -45
22z"/>
<path d="M3985 3850 c-38 -39 -29 -46 14 -11 19 15 30 31 24 34 -5 4 -23 -7
-38 -23z"/>
<path d="M802 3848 c-16 -16 -15 -38 2 -38 13 0 26 20 26 41 0 13 -14 11 -28
-3z"/>
<path d="M4135 3840 c-8 -13 13 -40 31 -40 17 0 17 5 4 31 -12 21 -25 25 -35
9z"/>
<path d="M740 3765 c-10 -12 -10 -19 -2 -27 9 -9 15 -7 26 7 23 32 0 49 -24
20z"/>
<path d="M878 3750 c18 -17 38 -30 45 -30 6 0 -3 14 -21 30 -18 17 -38 30 -45
30 -6 0 3 -14 21 -30z"/>
<path d="M4072 3740 c-19 -15 -30 -30 -25 -33 5 -3 24 7 42 22 19 16 30 30 25
33 -5 3 -24 -7 -42 -22z"/>
<path d="M4190 3762 c0 -5 6 -16 13 -27 18 -24 41 -11 27 16 -10 19 -40 27
-40 11z"/>
<path d="M687 3693 c-10 -9 -9 -43 1 -43 12 0 32 23 32 37 0 14 -22 18 -33 6z"/>
<path d="M4250 3676 c0 -18 26 -40 34 -27 9 14 -4 41 -20 41 -8 0 -14 -6 -14
-14z"/>
<path d="M770 3652 c0 -10 69 -47 76 -40 3 3 -10 15 -29 27 -37 23 -47 25 -47
13z"/>
<path d="M4150 3620 c-19 -16 -31 -29 -26 -30 14 0 76 41 76 51 0 16 -15 10
-50 -21z"/>
<path d="M637 3613 c-11 -10 -8 -43 3 -43 9 0 30 31 30 44 0 8 -25 7 -33 -1z"/>
<path d="M4300 3601 c0 -21 13 -41 26 -41 15 0 17 10 8 34 -7 17 -34 22 -34 7z"/>
<path d="M586 3524 c-9 -24 -7 -34 8 -34 13 0 26 20 26 41 0 15 -27 10 -34 -7z"/>
<path d="M690 3535 c0 -6 62 -45 73 -45 17 0 5 16 -24 33 -31 17 -49 22 -49
12z"/>
<path d="M4233 3508 c-47 -28 -41 -42 7 -18 23 12 38 25 35 30 -4 6 -7 10 -8
9 -1 0 -17 -10 -34 -21z"/>
<path d="M4346 3521 c-8 -13 20 -45 33 -37 8 5 8 13 1 27 -11 20 -25 25 -34
10z"/>
<path d="M547 3443 c-11 -10 -8 -43 3 -43 9 0 30 31 30 44 0 8 -25 7 -33 -1z"/>
<path d="M4390 3428 c0 -7 5 -20 10 -28 12 -20 33 0 24 23 -7 20 -34 23 -34 5z"/>
<path d="M630 3401 c0 -11 69 -36 77 -28 5 6 -50 37 -67 37 -5 0 -10 -4 -10
-9z"/>
<path d="M4295 3378 c-22 -12 -35 -23 -28 -25 15 -5 73 24 73 37 0 12 3 13
-45 -12z"/>
<path d="M506 3354 c-9 -24 -7 -34 8 -34 16 0 29 27 20 41 -8 14 -21 11 -28
-7z"/>
<path d="M4435 3347 c-8 -19 12 -50 26 -41 13 7 11 17 -5 40 -14 18 -15 18
-21 1z"/>
<path d="M467 3258 c-7 -27 -3 -32 18 -25 19 8 20 47 1 47 -7 0 -16 -10 -19
-22z"/>
<path d="M570 3272 c0 -10 70 -36 77 -29 5 6 -50 37 -67 37 -5 0 -10 -4 -10
-8z"/>
<path d="M4465 3260 c-3 -5 -1 -19 5 -31 15 -27 35 -10 25 20 -7 22 -20 27
-30 11z"/>
<path d="M4343 3248 c-19 -9 -32 -28 -19 -28 9 0 76 31 76 35 0 8 -34 4 -57
-7z"/>
<path d="M436 3174 c-9 -24 -7 -34 8 -34 16 0 29 27 20 41 -8 14 -21 11 -28
-7z"/>
<path d="M4497 3173 c-3 -4 -1 -19 4 -32 11 -28 33 -16 27 15 -3 19 -23 30
-31 17z"/>
<path d="M522 3138 c5 -13 67 -33 76 -24 3 3 -11 13 -31 21 -44 18 -50 19 -45
3z"/>
<path d="M4393 3118 c-29 -10 -46 -28 -25 -28 22 0 82 22 82 30 0 12 -15 11
-57 -2z"/>
<path d="M410 3079 c-9 -16 -9 -24 -1 -32 12 -12 31 6 31 30 0 22 -19 24 -30
2z"/>
<path d="M4527 3083 c-8 -13 3 -53 14 -53 6 0 12 7 16 16 6 17 -21 51 -30 37z"/>
<path d="M480 3001 c0 -6 12 -13 28 -17 15 -3 32 -7 39 -9 7 -2 15 0 18 4 2 5
-7 12 -23 15 -15 4 -35 9 -44 12 -10 3 -18 1 -18 -5z"/>
<path d="M387 2993 c-13 -12 -7 -43 8 -43 8 0 15 4 15 9 0 5 3 16 6 25 6 16
-16 23 -29 9z"/>
<path d="M4431 2979 c-18 -6 -31 -13 -28 -16 9 -9 87 8 81 18 -6 10 -8 10 -53
-2z"/>
<path d="M4550 2966 c0 -17 5 -26 16 -26 10 0 14 7 12 22 -5 32 -28 35 -28 4z"/>
<path d="M366 2894 c-9 -24 -7 -34 8 -34 16 0 29 27 20 41 -8 14 -21 11 -28
-7z"/>
<path d="M4572 2876 c2 -15 8 -26 13 -26 15 0 12 43 -3 48 -10 3 -13 -4 -10
-22z"/>
<path d="M450 2861 c0 -10 35 -21 70 -21 14 0 20 4 15 9 -14 12 -85 22 -85 12z"/>
<path d="M4458 2843 c-31 -5 -39 -23 -10 -23 28 0 62 12 62 21 0 9 -4 9 -52 2z"/>
<path d="M357 2814 c-4 -4 -7 -18 -7 -31 0 -28 23 -27 28 1 4 20 -11 40 -21
30z"/>
<path d="M4582 2778 c5 -32 28 -35 28 -4 0 17 -5 26 -16 26 -10 0 -14 -7 -12
-22z"/>
<path d="M340 2695 c0 -16 6 -25 15 -25 9 0 15 9 15 25 0 16 -6 25 -15 25 -9
0 -15 -9 -15 -25z"/>
<path d="M435 2710 c3 -5 24 -10 46 -10 24 0 38 4 34 10 -3 6 -24 10 -46 10
-24 0 -38 -4 -34 -10z"/>
<path d="M4478 2703 c-21 -2 -38 -8 -38 -14 0 -10 50 -12 74 -3 16 6 23 26 9
22 -5 -1 -25 -3 -45 -5z"/>
<path d="M4592 2685 c2 -14 8 -26 13 -26 6 0 11 12 13 26 2 18 -1 25 -13 25
-12 0 -15 -7 -13 -25z"/>
<path d="M334 2616 c-7 -20 2 -46 16 -46 13 0 13 47 0 55 -6 3 -13 -1 -16 -9z"/>
<path d="M4600 2585 c0 -16 6 -25 15 -25 9 0 15 9 15 25 0 16 -6 25 -15 25 -9
0 -15 -9 -15 -25z"/>
<path d="M420 2570 c0 -5 20 -10 45 -10 25 0 45 5 45 10 0 6 -20 10 -45 10
-25 0 -45 -4 -45 -10z"/>
<path d="M4450 2550 c0 -5 20 -10 45 -10 25 0 45 5 45 10 0 6 -20 10 -45 10
-25 0 -45 -4 -45 -10z"/>
<path d="M330 2505 c0 -16 6 -25 15 -25 9 0 15 9 15 25 0 16 -6 25 -15 25 -9
0 -15 -9 -15 -25z"/>
<path d="M4604 2506 c-8 -21 3 -49 16 -41 5 3 10 15 10 25 0 25 -18 36 -26 16z"/>
<path d="M4450 2450 c0 -5 20 -10 45 -10 25 0 45 5 45 10 0 6 -20 10 -45 10
-25 0 -45 -4 -45 -10z"/>
<path d="M420 2430 c0 -5 20 -10 45 -10 25 0 45 5 45 10 0 6 -20 10 -45 10
-25 0 -45 -4 -45 -10z"/>
<path d="M332 2408 c5 -32 28 -35 28 -4 0 17 -5 26 -16 26 -10 0 -14 -7 -12
-22z"/>
<path d="M4600 2394 c0 -31 23 -28 28 4 2 15 -2 22 -12 22 -11 0 -16 -9 -16
-26z"/>
<path d="M342 2316 c2 -15 8 -26 13 -26 15 0 12 43 -3 48 -10 3 -13 -4 -10
-22z"/>
<path d="M4597 2324 c-4 -4 -7 -18 -7 -31 0 -28 23 -27 28 1 4 20 -11 40 -21
30z"/>
<path d="M4445 2310 c3 -5 24 -10 46 -10 21 0 39 5 39 10 0 6 -21 10 -46 10
-27 0 -43 -4 -39 -10z"/>
<path d="M448 2293 c-10 -2 -18 -9 -18 -15 0 -5 7 -7 16 -4 9 3 29 6 45 6 16
0 29 5 29 10 0 10 -40 12 -72 3z"/>
<path d="M350 2215 c0 -16 6 -25 15 -25 9 0 15 9 15 25 0 16 -6 25 -15 25 -9
0 -15 -9 -15 -25z"/>
<path d="M4580 2205 c0 -16 6 -25 15 -25 9 0 15 9 15 25 0 16 -6 25 -15 25 -9
0 -15 -9 -15 -25z"/>
<path d="M4436 2171 c13 -12 74 -22 74 -12 0 12 -26 21 -58 21 -15 0 -22 -4
-16 -9z"/>
<path d="M473 2153 c-13 -2 -23 -9 -23 -14 0 -11 70 -1 85 12 9 9 -20 10 -62
2z"/>
<path d="M363 2134 c-7 -18 11 -39 25 -30 12 7 4 46 -9 46 -6 0 -12 -7 -16
-16z"/>
<path d="M4565 2120 c-4 -12 -2 -27 4 -33 13 -13 20 -7 23 23 4 30 -18 38 -27
10z"/>
<path d="M384 2047 c-8 -23 3 -50 19 -44 13 4 11 36 -4 51 -5 6 -11 3 -15 -7z"/>
<path d="M4400 2041 c0 -14 72 -33 83 -22 5 5 -4 11 -20 15 -15 4 -36 9 -45
12 -10 3 -18 1 -18 -5z"/>
<path d="M4547 2033 c-12 -12 -7 -43 7 -43 13 0 26 20 26 41 0 10 -23 12 -33
2z"/>
<path d="M518 2017 c-47 -11 -51 -31 -5 -22 17 4 38 11 46 15 23 13 -2 17 -41
7z"/>
<path d="M400 1951 c0 -21 13 -41 26 -41 15 0 17 10 8 34 -7 17 -34 22 -34 7z"/>
<path d="M4527 1943 c-13 -12 -7 -43 8 -43 9 0 15 9 15 25 0 24 -10 32 -23 18z"/>
<path d="M4360 1905 c0 -5 24 -16 68 -29 35 -11 26 11 -9 23 -34 12 -59 14
-59 6z"/>
<path d="M548 1878 c-16 -5 -28 -14 -28 -20 0 -6 7 -7 16 -4 9 3 27 9 40 12
13 3 24 10 24 15 0 11 -17 10 -52 -3z"/>
<path d="M430 1850 c0 -11 7 -23 15 -27 21 -7 25 -2 18 25 -7 28 -33 29 -33 2z"/>
<path d="M4495 1839 c-10 -30 10 -47 25 -20 11 21 6 41 -10 41 -5 0 -12 -9
-15 -21z"/>
<path d="M460 1771 c0 -21 13 -41 26 -41 15 0 17 10 8 34 -7 17 -34 22 -34 7z"/>
<path d="M4320 1772 c0 -9 51 -32 71 -32 19 0 7 18 -15 24 -13 3 -31 9 -40 12
-9 3 -16 2 -16 -4z"/>
<path d="M4467 1764 c-13 -13 -7 -44 8 -44 8 0 15 7 15 15 0 8 0 18 1 22 1 10
-16 15 -24 7z"/>
<path d="M603 1748 c-29 -9 -46 -28 -26 -28 16 0 73 25 73 32 0 10 -5 9 -47
-4z"/>
<path d="M497 1684 c-8 -9 11 -44 24 -44 6 0 9 10 7 22 -3 22 -19 34 -31 22z"/>
<path d="M4426 1664 c-9 -24 -7 -34 8 -34 13 0 26 20 26 41 0 15 -27 10 -34
-7z"/>
<path d="M4260 1645 c0 -2 18 -14 40 -25 22 -11 40 -16 40 -10 0 5 -13 16 -30
25 -29 15 -50 19 -50 10z"/>
<path d="M658 1614 c-44 -23 -32 -37 12 -14 22 11 40 23 40 25 0 9 -25 4 -52
-11z"/>
<path d="M537 1594 c-8 -9 11 -44 24 -44 6 0 9 10 7 22 -3 22 -19 34 -31 22z"/>
<path d="M4386 1574 c-9 -24 -7 -34 8 -34 13 0 26 20 26 41 0 15 -27 10 -34
-7z"/>
<path d="M4200 1522 c0 -12 68 -48 75 -40 3 3 -10 15 -30 27 -40 23 -45 25
-45 13z"/>
<path d="M580 1500 c0 -20 25 -38 36 -27 8 7 -15 47 -26 47 -6 0 -10 -9 -10
-20z"/>
<path d="M722 1489 c-18 -12 -30 -24 -27 -27 7 -8 75 28 75 40 0 13 -12 9 -48
-13z"/>
<path d="M4346 1494 c-9 -24 -7 -34 8 -34 16 0 29 27 20 41 -8 14 -21 11 -28
-7z"/>
<path d="M620 1422 c0 -5 6 -16 13 -27 18 -24 41 -11 27 16 -10 19 -40 27 -40
11z"/>
<path d="M4297 1413 c-10 -9 -9 -43 1 -43 12 0 32 23 32 37 0 14 -22 18 -33 6z"/>
<path d="M4128 1398 c17 -21 72 -50 72 -38 0 10 -58 50 -74 50 -5 0 -4 -6 2
-12z"/>
<path d="M795 1365 c-19 -15 -24 -24 -15 -25 8 0 29 11 45 25 19 15 24 24 15
25 -8 0 -28 -11 -45 -25z"/>
<path d="M676 1341 c-3 -4 1 -17 9 -27 11 -15 16 -16 26 -7 10 10 9 15 -1 28
-14 17 -26 19 -34 6z"/>
<path d="M4247 1333 c-10 -9 -9 -43 1 -43 12 0 32 23 32 37 0 14 -22 18 -33 6z"/>
<path d="M4047 1294 c-7 -8 47 -54 63 -54 6 0 9 4 5 10 -10 16 -62 50 -68 44z"/>
<path d="M880 1250 c-21 -17 -29 -29 -20 -29 14 0 70 42 70 54 0 12 -18 3 -50
-25z"/>
<path d="M730 1256 c0 -18 26 -40 34 -27 9 14 -4 41 -20 41 -8 0 -14 -6 -14
-14z"/>
<path d="M4190 1245 c-16 -19 -3 -40 16 -24 15 13 19 39 5 39 -5 0 -14 -7 -21
-15z"/>
<path d="M790 1180 c0 -20 25 -38 36 -27 8 7 -15 47 -26 47 -6 0 -10 -9 -10
-20z"/>
<path d="M3960 1183 c0 -16 57 -65 64 -55 3 5 -2 16 -12 24 -39 32 -52 40 -52
31z"/>
<path d="M4130 1170 c-6 -12 -9 -25 -5 -28 9 -9 40 13 40 28 0 23 -23 22 -35
0z"/>
<path d="M975 1146 c-16 -13 -26 -28 -22 -32 4 -4 22 6 40 24 37 37 25 43 -18
8z"/>
<path d="M850 1106 c0 -7 6 -19 14 -25 19 -16 32 5 16 24 -16 19 -30 19 -30 1z"/>
<path d="M4070 1095 c-19 -23 -1 -39 21 -19 10 9 16 21 13 25 -8 13 -20 11
-34 -6z"/>
<path d="M3860 1082 c0 -14 59 -66 67 -59 3 4 -6 21 -22 37 -28 30 -45 38 -45
22z"/>
<path d="M1072 1047 c-34 -36 -27 -55 8 -22 17 16 30 32 30 37 0 15 -16 8 -38
-15z"/>
<path d="M910 1036 c0 -22 29 -41 42 -28 8 8 8 15 -2 27 -16 19 -40 20 -40 1z"/>
<path d="M4000 1025 c-6 -8 -9 -19 -5 -25 9 -14 45 6 45 25 0 19 -24 19 -40 0z"/>
<path d="M3760 982 c0 -5 14 -21 30 -37 34 -33 40 -21 9 19 -20 25 -39 34 -39
18z"/>
<path d="M982 964 c2 -11 11 -20 22 -22 13 -3 17 1 14 14 -2 11 -11 20 -22 22
-13 3 -17 -1 -14 -14z"/>
<path d="M1176 948 c-14 -18 -23 -34 -20 -37 5 -6 64 50 64 61 0 17 -20 7 -44
-24z"/>
<path d="M3933 955 c-3 -9 -3 -18 0 -22 10 -10 37 6 37 22 0 20 -29 20 -37 0z"/>
<path d="M1050 906 c0 -19 27 -39 40 -31 8 5 6 13 -6 26 -20 22 -34 25 -34 5z"/>
<path d="M3650 906 c0 -13 43 -76 53 -76 15 0 6 21 -23 52 -16 18 -30 29 -30
24z"/>
<path d="M3865 894 c-11 -11 -13 -20 -6 -27 12 -12 41 8 41 29 0 19 -15 18
-35 -2z"/>
<path d="M1291 864 c-12 -15 -21 -31 -21 -35 0 -19 16 -7 38 26 26 41 13 47
-17 9z"/>
<path d="M1125 849 c-8 -13 13 -39 31 -39 21 0 17 23 -6 37 -13 8 -21 9 -25 2z"/>
<path d="M3790 835 c-9 -10 -10 -19 -4 -25 13 -13 49 13 40 28 -10 16 -21 15
-36 -3z"/>
<path d="M3540 819 c0 -15 33 -69 42 -69 12 0 10 10 -13 46 -22 36 -29 41 -29
23z"/>
<path d="M1411 787 c-23 -37 -25 -47 -13 -47 10 0 47 69 40 76 -3 3 -15 -10
-27 -29z"/>
<path d="M1200 786 c0 -19 27 -39 40 -31 8 5 6 13 -6 26 -20 22 -34 25 -34 5z"/>
<path d="M3718 779 c-25 -14 -22 -31 4 -27 13 2 24 11 26 21 4 19 -5 21 -30 6z"/>
<path d="M3420 750 c0 -18 30 -70 40 -70 6 0 1 18 -10 40 -20 40 -30 49 -30
30z"/>
<path d="M1531 713 c-12 -24 -17 -43 -11 -43 13 0 42 58 37 73 -2 7 -14 -7
-26 -30z"/>
<path d="M1277 734 c-9 -10 12 -34 30 -34 19 0 12 34 -8 38 -8 1 -18 0 -22 -4z"/>
<path d="M3631 716 c-7 -9 -8 -17 -2 -20 14 -9 41 4 41 20 0 18 -24 18 -39 0z"/>
<path d="M1356 681 c-9 -14 22 -34 41 -26 17 6 17 7 -1 21 -23 16 -33 18 -40
5z"/>
<path d="M3305 653 c18 -42 23 -49 30 -41 8 7 -26 78 -37 78 -5 0 -1 -17 7
-37z"/>
<path d="M1655 643 c-13 -32 -14 -55 0 -42 13 13 34 79 25 79 -5 0 -17 -16
-25 -37z"/>
<path d="M3551 666 c-7 -9 -8 -17 -2 -20 14 -9 41 4 41 20 0 18 -24 18 -39 0z"/>
<path d="M1440 626 c0 -13 20 -26 41 -26 15 0 10 27 -7 34 -24 9 -34 7 -34 -8z"/>
<path d="M3160 636 c0 -15 32 -76 40 -76 6 0 4 15 -5 36 -8 20 -15 38 -15 40
0 2 -4 4 -10 4 -5 0 -10 -2 -10 -4z"/>
<path d="M3474 626 c-13 -10 -16 -18 -8 -25 7 -8 16 -7 30 3 13 10 16 18 8 25
-7 8 -16 7 -30 -3z"/>
<path d="M1800 626 c0 -2 -7 -20 -16 -41 -11 -26 -12 -36 -3 -33 15 5 42 78
28 78 -5 0 -9 -2 -9 -4z"/>
<path d="M1524 589 c-7 -12 12 -29 34 -29 18 0 15 27 -4 34 -21 8 -22 8 -30
-5z"/>
<path d="M3030 594 c0 -19 24 -84 32 -84 11 0 10 5 -4 51 -6 22 -15 39 -20 39
-4 0 -8 -3 -8 -6z"/>
<path d="M1922 553 c-15 -47 -2 -67 14 -22 15 41 17 59 6 59 -5 0 -14 -16 -20
-37z"/>
<path d="M3381 576 c-8 -10 -9 -16 -2 -21 14 -8 53 13 46 26 -9 13 -31 11 -44
-5z"/>
<path d="M1610 546 c0 -13 20 -26 41 -26 15 0 10 27 -7 34 -24 9 -34 7 -34 -8z"/>
<path d="M2061 525 c-13 -49 -14 -55 -1 -55 11 0 24 63 17 82 -2 7 -9 -5 -16
-27z"/>
<path d="M2900 545 c0 -32 12 -65 22 -65 6 0 7 14 3 33 -8 38 -25 60 -25 32z"/>
<path d="M3293 535 c-3 -9 -3 -18 0 -21 7 -8 47 15 47 26 0 16 -40 11 -47 -5z"/>
<path d="M2760 520 c0 -36 11 -70 22 -70 5 0 6 16 2 38 -8 45 -24 66 -24 32z"/>
<path d="M2198 493 c-3 -21 -3 -40 -1 -43 8 -9 23 25 23 53 0 40 -17 33 -22
-10z"/>
<path d="M1700 506 c0 -18 31 -29 44 -16 8 8 7 14 -4 20 -22 14 -40 12 -40 -4z"/>
<path d="M2340 475 c0 -25 5 -45 10 -45 6 0 10 20 10 45 0 25 -4 45 -10 45 -5
0 -10 -20 -10 -45z"/>
<path d="M2487 513 c-11 -10 -8 -83 3 -83 6 0 10 20 10 45 0 46 -2 50 -13 38z"/>
<path d="M2620 481 c0 -22 5 -43 10 -46 6 -4 10 12 10 39 0 25 -4 46 -10 46
-5 0 -10 -18 -10 -39z"/>
<path d="M3218 513 c-24 -6 -23 -33 1 -33 23 0 38 18 25 29 -5 4 -17 6 -26 4z"/>
<path d="M1790 476 c0 -13 20 -26 41 -26 15 0 10 27 -7 34 -24 9 -34 7 -34 -8z"/>
<path d="M3128 483 c-24 -6 -23 -33 1 -33 23 0 38 18 25 29 -5 4 -17 6 -26 4z"/>
<path d="M1880 446 c0 -16 37 -28 46 -15 8 14 -5 29 -27 29 -10 0 -19 -6 -19
-14z"/>
<path d="M3026 447 c-13 -10 -16 -16 -7 -21 15 -10 53 3 48 17 -5 17 -21 18
-41 4z"/>
<path d="M1974 429 c-7 -12 12 -29 33 -29 21 0 24 19 4 29 -25 14 -28 14 -37
0z"/>
<path d="M2927 424 c-4 -4 -7 -11 -7 -16 0 -13 50 -6 53 7 2 12 -36 19 -46 9z"/>
<path d="M2070 405 c0 -20 28 -31 43 -16 13 13 10 16 -20 25 -17 6 -23 3 -23
-9z"/>
<path d="M2830 394 c0 -10 7 -14 22 -12 32 5 35 28 4 28 -17 0 -26 -5 -26 -16z"/>
<path d="M2160 385 c0 -9 9 -15 25 -15 16 0 25 6 25 15 0 9 -9 15 -25 15 -16
0 -25 -6 -25 -15z"/>
<path d="M2737 394 c-4 -4 -7 -11 -7 -16 0 -13 50 -6 53 7 2 12 -36 19 -46 9z"/>
<path d="M2257 384 c-11 -12 3 -24 29 -24 16 0 24 5 22 13 -5 13 -40 22 -51
11z"/>
<path d="M2647 383 c-14 -13 -6 -23 18 -23 16 0 25 6 25 15 0 15 -31 21 -43 8z"/>
<path d="M2352 368 c5 -15 48 -18 48 -3 0 6 -11 11 -26 13 -18 3 -25 0 -22
-10z"/>
<path d="M2450 365 c0 -9 9 -15 25 -15 16 0 25 6 25 15 0 9 -9 15 -25 15 -16
0 -25 -6 -25 -15z"/>
<path d="M2545 370 c-8 -13 20 -24 41 -16 20 8 9 26 -16 26 -10 0 -22 -5 -25
-10z"/>
</g>
</svg>
